Amaranth-Regular.ufo
<glyph name="dollar" format="1">
  <advance width="519"/>
  <unicode hex="0024"/>
  <outline>
    <contour>
      <point x="223" y="-83" type="line"/>
      <point x="305" y="-83" type="line"/>
      <point x="305" y="15" type="line"/>
      <point x="406" y="36"/>
      <point x="458" y="113"/>
      <point x="458" y="192" type="curve" smooth="yes"/>
      <point x="458" y="285"/>
      <point x="401" y="327"/>
      <point x="302" y="366" type="curve"/>
      <point x="227" y="394"/>
      <point x="187" y="418"/>
      <point x="187" y="472" type="curve" smooth="yes"/>
      <point x="187" y="515"/>
      <point x="229" y="531"/>
      <point x="274" y="531" type="curve" smooth="yes"/>
      <point x="331" y="531"/>
      <point x="388" y="500"/>
      <point x="410" y="490" type="curve"/>
      <point x="450" y="572" type="line"/>
      <point x="435" y="581"/>
      <point x="375" y="609"/>
      <point x="305" y="617" type="curve"/>
      <point x="305" y="694" type="line"/>
      <point x="223" y="694" type="line"/>
      <point x="223" y="615" type="line"/>
      <point x="132" y="598"/>
      <point x="71" y="535"/>
      <point x="71" y="459" type="curve" smooth="yes"/>
      <point x="71" y="362"/>
      <point x="137" y="315"/>
      <point x="248" y="272" type="curve" smooth="yes"/>
      <point x="306" y="250"/>
      <point x="343" y="237"/>
      <point x="343" y="184" type="curve" smooth="yes"/>
      <point x="343" y="129"/>
      <point x="310" y="101"/>
      <point x="243" y="101" type="curve" smooth="yes"/>
      <point x="190" y="101"/>
      <point x="113" y="145"/>
      <point x="93" y="157" type="curve"/>
      <point x="50" y="69" type="line"/>
      <point x="72" y="56"/>
      <point x="139" y="19"/>
      <point x="223" y="11" type="curve"/>
    </contour>
  </outline>
</glyph>
<glyph name="one" format="1">
  <advance width="385"/>
  <unicode hex="0031"/>
  <outline>
    <contour>
      <point x="200" y="637" type="line"/>
      <point x="124" y="555"/>
      <point x="65" y="531"/>
      <point x="0" y="504" type="curve"/>
      <point x="45" y="422" type="line"/>
      <point x="84" y="433"/>
      <point x="130" y="466"/>
      <point x="171" y="504" type="curve"/>
      <point x="171" y="0" type="line"/>
      <point x="285" y="0" type="line"/>
      <point x="285" y="637" type="line"/>
    </contour>
  </outline>
</glyph>
<glyph name="two" format="1">
  <advance width="492"/>
  <unicode hex="0032"/>
  <outline>
    <contour>
      <point x="78" y="507" type="line"/>
      <point x="140" y="533"/>
      <point x="181" y="555"/>
      <point x="233" y="555" type="curve" smooth="yes"/>
      <point x="278" y="555"/>
      <point x="310" y="522"/>
      <point x="310" y="471" type="curve" smooth="yes"/>
      <point x="310" y="403"/>
      <point x="278" y="359"/>
      <point x="173" y="238" type="curve"/>
      <point x="151" y="214"/>
      <point x="58" y="119"/>
      <point x="36" y="94" type="curve"/>
      <point x="35" y="0" type="line"/>
      <point x="451" y="0" type="line"/>
      <point x="451" y="91" type="line"/>
      <point x="180" y="91" type="line"/>
      <point x="272" y="192" type="line" smooth="yes"/>
      <point x="373" y="303"/>
      <point x="434" y="382"/>
      <point x="434" y="469" type="curve" smooth="yes"/>
      <point x="434" y="601"/>
      <point x="351" y="642"/>
      <point x="257" y="642" type="curve" smooth="yes"/>
      <point x="178" y="642"/>
      <point x="92" y="610"/>
      <point x="39" y="586" type="curve"/>
    </contour>
  </outline>
</glyph>
<glyph name="five" format="1">
  <advance width="509"/>
  <unicode hex="0035"/>
  <outline>
    <contour>
      <point x="112" y="287" type="line"/>
      <point x="119" y="290"/>
      <point x="158" y="315"/>
      <point x="237" y="315" type="curve" smooth="yes"/>
      <point x="297" y="315"/>
      <point x="337" y="277"/>
      <point x="337" y="207" type="curve" smooth="yes"/>
      <point x="337" y="123"/>
      <point x="307" y="81"/>
      <point x="230" y="81" type="curve" smooth="yes"/>
      <point x="182" y="81"/>
      <point x="140" y="102"/>
      <point x="79" y="129" type="curve"/>
      <point x="45" y="46" type="line"/>
      <point x="113" y="15"/>
      <point x="182" y="-7"/>
      <point x="252" y="-7" type="curve" smooth="yes"/>
      <point x="404" y="-7"/>
      <point x="460" y="101"/>
      <point x="460" y="206" type="curve" smooth="yes"/>
      <point x="460" y="316"/>
      <point x="390" y="404"/>
      <point x="279" y="404" type="curve" smooth="yes"/>
      <point x="217" y="404"/>
      <point x="188" y="392"/>
      <point x="178" y="385" type="curve"/>
      <point x="199" y="546" type="line"/>
      <point x="411" y="546" type="line"/>
      <point x="427" y="637" type="line"/>
      <point x="99" y="637" type="line"/>
      <point x="65" y="322" type="line"/>
    </contour>
  </outline>
</glyph>
<glyph name="eight" format="1">
  <advance width="524"/>
  <unicode hex="0038"/>
  <outline>
    <contour>
      <point x="261" y="-6" type="curve" smooth="yes"/>
      <point x="146" y="-6"/>
      <point x="50" y="48"/>
      <point x="50" y="159" type="curve" smooth="yes"/>
      <point x="50" y="240"/>
      <point x="112" y="290"/>
      <point x="173" y="328" type="curve"/>
      <point x="114" y="362"/>
      <point x="67" y="417"/>
      <point x="67" y="488" type="curve" smooth="yes"/>
      <point x="67" y="572"/>
      <point x="153" y="642"/>
      <point x="266" y="642" type="curve" smooth="yes"/>
      <point x="371" y="642"/>
      <point x="453" y="577"/>
      <point x="453" y="492" type="curve" smooth="yes"/>
      <point x="453" y="423"/>
      <point x="404" y="373"/>
      <point x="350" y="335" type="curve"/>
      <point x="413" y="301"/>
      <point x="474" y="237"/>
      <point x="474" y="165" type="curve" smooth="yes"/>
      <point x="474" y="62"/>
      <point x="381" y="-6"/>
    </contour>
    <contour>
      <point x="169" y="163" type="curve" smooth="yes"/>
      <point x="169" y="114"/>
      <point x="205" y="73"/>
      <point x="269" y="73" type="curve" smooth="yes"/>
      <point x="319" y="73"/>
      <point x="352" y="114"/>
      <point x="352" y="161" type="curve" smooth="yes"/>
      <point x="352" y="211"/>
      <point x="303" y="258"/>
      <point x="264" y="287" type="curve"/>
      <point x="213" y="258"/>
      <point x="169" y="221"/>
    </contour>
    <contour>
      <point x="334" y="491" type="curve" smooth="yes"/>
      <point x="334" y="532"/>
      <point x="307" y="563"/>
      <point x="262" y="563" type="curve" smooth="yes"/>
      <point x="216" y="563"/>
      <point x="185" y="538"/>
      <point x="185" y="493" type="curve" smooth="yes"/>
      <point x="185" y="436"/>
      <point x="225" y="400"/>
      <point x="262" y="379" type="curve"/>
      <point x="301" y="401"/>
      <point x="334" y="430"/>
    </contour>
  </outline>
</glyph>
<glyph name="semicolon" format="1">
  <advance width="289"/>
  <unicode hex="003B"/>
  <outline>
    <contour>
      <point x="166" y="510" type="curve" smooth="yes"/>
      <point x="116" y="510"/>
      <point x="90" y="476"/>
      <point x="90" y="432" type="curve" smooth="yes"/>
      <point x="90" y="393"/>
      <point x="116" y="359"/>
      <point x="163" y="359" type="curve" smooth="yes"/>
      <point x="212" y="359"/>
      <point x="238" y="393"/>
      <point x="238" y="435" type="curve" smooth="yes"/>
      <point x="238" y="479"/>
      <point x="212" y="510"/>
    </contour>
    <contour>
      <point x="107" y="123" type="curve"/>
      <point x="108" y="98"/>
      <point x="126" y="64"/>
      <point x="126" y="25" type="curve" smooth="yes"/>
      <point x="126" y="-11"/>
      <point x="112" y="-51"/>
      <point x="60" y="-89" type="curve"/>
      <point x="102" y="-147" type="line"/>
      <point x="173" y="-111"/>
      <point x="240" y="-41"/>
      <point x="240" y="67" type="curve" smooth="yes"/>
      <point x="240" y="110"/>
      <point x="219" y="141"/>
      <point x="172" y="141" type="curve" smooth="yes"/>
      <point x="126" y="141"/>
      <point x="108" y="124"/>
    </contour>
  </outline>
</glyph>
<glyph name="greater" format="1">
  <advance width="455"/>
  <unicode hex="003E"/>
  <outline>
    <contour>
      <point x="80" y="90" type="line"/>
      <point x="425" y="259" type="line"/>
      <point x="425" y="341" type="line"/>
      <point x="86" y="506" type="line"/>
      <point x="46" y="413" type="line"/>
      <point x="240" y="326" type="line"/>
      <point x="260" y="316"/>
      <point x="283" y="307"/>
      <point x="301" y="300" type="curve"/>
      <point x="283" y="293"/>
      <point x="259" y="283"/>
      <point x="239" y="274" type="curve" smooth="yes"/>
      <point x="40" y="183" type="line"/>
    </contour>
  </outline>
</glyph>
<glyph name="C" format="1">
  <advance width="523"/>
  <unicode hex="0043"/>
  <outline>
    <contour>
      <point x="316" y="0" type="move" name="bottom"/>
    </contour>
    <contour>
      <point x="503" y="614" type="line"/>
      <point x="471" y="651"/>
      <point x="422" y="686"/>
      <point x="342" y="686" type="curve" smooth="yes"/>
      <point x="142" y="686"/>
      <point x="47" y="540"/>
      <point x="47" y="330" type="curve" smooth="yes"/>
      <point x="47" y="112"/>
      <point x="138" y="-6"/>
      <point x="316" y="-6" type="curve" smooth="yes"/>
      <point x="419" y="-6"/>
      <point x="494" y="29"/>
      <point x="493" y="28" type="curve"/>
      <point x="465" y="112" type="line"/>
      <point x="456" y="110"/>
      <point x="400" y="86"/>
      <point x="339" y="86" type="curve" smooth="yes"/>
      <point x="211" y="86"/>
      <point x="176" y="201"/>
      <point x="176" y="341" type="curve" smooth="yes"/>
      <point x="176" y="482"/>
      <point x="216" y="594"/>
      <point x="330" y="594" type="curve" smooth="yes"/>
      <point x="376" y="594"/>
      <point x="410" y="575"/>
      <point x="442" y="541" type="curve"/>
    </contour>
  </outline>
</glyph>
<glyph name="F" format="1">
  <advance width="488"/>
  <unicode hex="0046"/>
  <outline>
    <contour>
      <point x="70" y="0" type="line"/>
      <point x="189" y="0" type="line"/>
      <point x="189" y="302" type="line"/>
      <point x="407" y="302" type="line"/>
      <point x="422" y="392" type="line"/>
      <point x="189" y="392" type="line"/>
      <point x="189" y="587" type="line"/>
      <point x="472" y="587" type="line"/>
      <point x="472" y="677" type="line"/>
      <point x="70" y="677" type="line"/>
    </contour>
  </outline>
</glyph>
<glyph name="H" format="1">
  <advance width="657"/>
  <unicode hex="0048"/>
  <outline>
    <contour>
      <point x="468" y="0" type="line"/>
      <point x="587" y="0" type="line"/>
      <point x="587" y="677" type="line"/>
      <point x="468" y="677" type="line"/>
      <point x="468" y="395" type="line"/>
      <point x="189" y="395" type="line"/>
      <point x="189" y="677" type="line"/>
      <point x="70" y="677" type="line"/>
      <point x="70" y="0" type="line"/>
      <point x="189" y="0" type="line"/>
      <point x="189" y="308" type="line"/>
      <point x="468" y="308" type="line"/>
    </contour>
  </outline>
</glyph>
<glyph name="J" format="1">
  <advance width="259"/>
  <unicode hex="004A"/>
  <outline>
    <contour>
      <point x="189" y="677" type="line"/>
      <point x="70" y="677" type="line"/>
      <point x="70" y="13" type="line" smooth="yes"/>
      <point x="70" y="-29"/>
      <point x="70" y="-92"/>
      <point x="-35" y="-144" type="curve"/>
      <point x="12" y="-223" type="line"/>
      <point x="93" y="-182"/>
      <point x="189" y="-136"/>
      <point x="189" y="25" type="curve" smooth="yes"/>
    </contour>
  </outline>
</glyph>
<glyph name="Q" format="1">
  <advance width="672"/>
  <unicode hex="0051"/>
  <outline>
    <contour>
      <point x="615" y="-64" type="line"/>
      <point x="547" y="-97"/>
      <point x="492" y="-115"/>
      <point x="444" y="-115" type="curve" smooth="yes"/>
      <point x="409" y="-115"/>
      <point x="376" y="-106"/>
      <point x="345" y="-83" type="curve"/>
      <point x="495" y="-56"/>
      <point x="626" y="95"/>
      <point x="626" y="343" type="curve" smooth="yes"/>
      <point x="626" y="554"/>
      <point x="544" y="686"/>
      <point x="344" y="686" type="curve" smooth="yes"/>
      <point x="141" y="686"/>
      <point x="43" y="537"/>
      <point x="43" y="335" type="curve" smooth="yes"/>
      <point x="43" y="205"/>
      <point x="104" y="57"/>
      <point x="265" y="47" type="curve"/>
      <point x="278" y="132" type="line"/>
      <point x="191" y="152"/>
      <point x="168" y="222"/>
      <point x="168" y="344" type="curve" smooth="yes"/>
      <point x="168" y="477"/>
      <point x="214" y="594"/>
      <point x="330" y="594" type="curve" smooth="yes"/>
      <point x="468" y="594"/>
      <point x="498" y="467"/>
      <point x="498" y="332" type="curve" smooth="yes"/>
      <point x="498" y="111"/>
      <point x="390" y="-14"/>
      <point x="257" y="-14" type="curve" smooth="yes"/>
      <point x="242" y="-14"/>
      <point x="227" y="-12"/>
      <point x="211" y="-9" type="curve"/>
      <point x="189" y="-75" type="line"/>
      <point x="272" y="-168"/>
      <point x="374" y="-214"/>
      <point x="460" y="-214" type="curve" smooth="yes"/>
      <point x="534" y="-214"/>
      <point x="601" y="-185"/>
      <point x="656" y="-148" type="curve"/>
    </contour>
  </outline>
</glyph>
<glyph name="U" format="1">
  <advance width="635"/>
  <unicode hex="0055"/>
  <outline>
    <contour>
      <point x="319" y="677" type="move" name="topUC"/>
    </contour>
    <contour>
      <point x="60" y="677" type="line"/>
      <point x="60" y="249" type="line" smooth="yes"/>
      <point x="60" y="111"/>
      <point x="122" y="-6"/>
      <point x="310" y="-6" type="curve" smooth="yes"/>
      <point x="508" y="-6"/>
      <point x="575" y="111"/>
      <point x="575" y="249" type="curve" smooth="yes"/>
      <point x="575" y="677" type="line"/>
      <point x="456" y="677" type="line"/>
      <point x="456" y="258" type="line" smooth="yes"/>
      <point x="456" y="150"/>
      <point x="413" y="86"/>
      <point x="323" y="86" type="curve" smooth="yes"/>
      <point x="234" y="86"/>
      <point x="178" y="134"/>
      <point x="178" y="258" type="curve" smooth="yes"/>
      <point x="178" y="677" type="line"/>
    </contour>
  </outline>
</glyph>
<glyph name="V" format="1">
  <advance width="582"/>
  <unicode hex="0056"/>
  <outline>
    <contour>
      <point x="591" y="677" type="line"/>
      <point x="470" y="677" type="line"/>
      <point x="383" y="433" type="line" smooth="yes"/>
      <point x="338" y="306"/>
      <point x="308" y="210"/>
      <point x="293" y="160" type="curve"/>
      <point x="277" y="211"/>
      <point x="246" y="310"/>
      <point x="203" y="435" type="curve" smooth="yes"/>
      <point x="119" y="677" type="line"/>
      <point x="-8" y="677" type="line"/>
      <point x="245" y="0" type="line"/>
      <point x="338" y="0" type="line"/>
    </contour>
  </outline>
</glyph>
<glyph name="backslash" format="1">
  <advance width="417"/>
  <unicode hex="005C"/>
  <outline>
    <contour>
      <point x="109" y="729" type="line"/>
      <point x="-10" y="729" type="line"/>
      <point x="308" y="-126" type="line"/>
      <point x="427" y="-126" type="line"/>
    </contour>
  </outline>
</glyph>
<glyph name="h" format="1">
  <advance width="540"/>
  <unicode hex="0068"/>
  <outline>
    <contour>
      <point x="179" y="725" type="line"/>
      <point x="65" y="705" type="line"/>
      <point x="65" y="0" type="line"/>
      <point x="179" y="0" type="line"/>
      <point x="179" y="264" type="line" smooth="yes"/>
      <point x="179" y="355"/>
      <point x="245" y="417"/>
      <point x="300" y="417" type="curve" smooth="yes"/>
      <point x="348" y="417"/>
      <point x="366" y="382"/>
      <point x="366" y="326" type="curve" smooth="yes"/>
      <point x="366" y="0" type="line"/>
      <point x="480" y="0" type="line"/>
      <point x="480" y="334" type="line" smooth="yes"/>
      <point x="480" y="440"/>
      <point x="437" y="506"/>
      <point x="334" y="506" type="curve" smooth="yes"/>
      <point x="275" y="506"/>
      <point x="217" y="485"/>
      <point x="179" y="434" type="curve"/>
    </contour>
  </outline>
</glyph>
<glyph name="p" format="1">
  <advance width="541"/>
  <unicode hex="0070"/>
  <outline>
    <contour>
      <point x="188" y="-201" type="line"/>
      <point x="188" y="0" type="line"/>
      <point x="214" y="-3"/>
      <point x="241" y="-6"/>
      <point x="266" y="-6" type="curve" smooth="yes"/>
      <point x="409" y="-6"/>
      <point x="505" y="106"/>
      <point x="505" y="258" type="curve" smooth="yes"/>
      <point x="505" y="408"/>
      <point x="447" y="506"/>
      <point x="322" y="506" type="curve" smooth="yes"/>
      <point x="235" y="506"/>
      <point x="187" y="464"/>
      <point x="165" y="384" type="curve"/>
      <point x="156" y="460"/>
      <point x="115" y="501"/>
      <point x="115" y="501" type="curve"/>
      <point x="25" y="465" type="line"/>
      <point x="25" y="465"/>
      <point x="74" y="411"/>
      <point x="74" y="252" type="curve" smooth="yes"/>
      <point x="74" y="-221" type="line"/>
    </contour>
    <contour>
      <point x="303" y="426" type="curve" smooth="yes"/>
      <point x="376" y="426"/>
      <point x="383" y="341"/>
      <point x="383" y="248" type="curve" smooth="yes"/>
      <point x="383" y="147"/>
      <point x="354" y="74"/>
      <point x="253" y="74" type="curve" smooth="yes"/>
      <point x="233" y="74"/>
      <point x="201" y="81"/>
      <point x="188" y="85" type="curve"/>
      <point x="188" y="229" type="line" smooth="yes"/>
      <point x="188" y="327"/>
      <point x="237" y="426"/>
    </contour>
  </outline>
</glyph>
<glyph name="s" format="1">
  <advance width="412"/>
  <unicode hex="0073"/>
  <outline>
    <contour>
      <point x="212" y="510" type="curve" smooth="yes"/>
      <point x="291" y="510"/>
      <point x="367" y="471"/>
      <point x="367" y="471" type="curve"/>
      <point x="333" y="393" type="line"/>
      <point x="333" y="393"/>
      <point x="267" y="426"/>
      <point x="215" y="426" type="curve" smooth="yes"/>
      <point x="185" y="426"/>
      <point x="159" y="411"/>
      <point x="159" y="382" type="curve" smooth="yes"/>
      <point x="159" y="344"/>
      <point x="185" y="315"/>
      <point x="242" y="293" type="curve" smooth="yes"/>
      <point x="326" y="261"/>
      <point x="376" y="224"/>
      <point x="376" y="139" type="curve" smooth="yes"/>
      <point x="376" y="64"/>
      <point x="312" y="-10"/>
      <point x="202" y="-10" type="curve" smooth="yes"/>
      <point x="114" y="-10"/>
      <point x="23" y="39"/>
      <point x="24" y="38" type="curve"/>
      <point x="61" y="122" type="line"/>
      <point x="60" y="122"/>
      <point x="141" y="74"/>
      <point x="192" y="74" type="curve" smooth="yes"/>
      <point x="239" y="74"/>
      <point x="261" y="94"/>
      <point x="261" y="125" type="curve" smooth="yes"/>
      <point x="261" y="160"/>
      <point x="236" y="190"/>
      <point x="187" y="208" type="curve" smooth="yes"/>
      <point x="85" y="246"/>
      <point x="43" y="292"/>
      <point x="43" y="370" type="curve" smooth="yes"/>
      <point x="43" y="446"/>
      <point x="115" y="510"/>
    </contour>
  </outline>
</glyph>
<glyph name="t" format="1">
  <advance width="361"/>
  <unicode hex="0074"/>
  <outline>
    <contour>
      <point x="10" y="417" type="line"/>
      <point x="100" y="417" type="line"/>
      <point x="100" y="108" type="line" smooth="yes"/>
      <point x="100" y="26"/>
      <point x="154" y="-4"/>
      <point x="228" y="-4" type="curve" smooth="yes"/>
      <point x="303" y="-4"/>
      <point x="357" y="19"/>
      <point x="356" y="19" type="curve"/>
      <point x="337" y="94" type="line"/>
      <point x="337" y="94"/>
      <point x="297" y="80"/>
      <point x="259" y="80" type="curve" smooth="yes"/>
      <point x="236" y="80"/>
      <point x="214" y="87"/>
      <point x="214" y="121" type="curve" smooth="yes"/>
      <point x="214" y="417" type="line"/>
      <point x="323" y="417" type="line"/>
      <point x="337" y="498" type="line"/>
      <point x="214" y="498" type="line"/>
      <point x="214" y="636" type="line"/>
      <point x="120" y="615" type="line"/>
      <point x="100" y="498" type="line"/>
      <point x="10" y="498" type="line"/>
    </contour>
  </outline>
</glyph>
<glyph name="v" format="1">
  <advance width="524"/>
  <unicode hex="0076"/>
  <outline>
    <contour>
      <point x="353" y="498" type="line"/>
      <point x="353" y="499"/>
      <point x="364" y="439"/>
      <point x="364" y="384" type="curve" smooth="yes"/>
      <point x="364" y="232"/>
      <point x="336" y="75"/>
      <point x="240" y="75" type="curve" smooth="yes"/>
      <point x="192" y="75"/>
      <point x="174" y="113"/>
      <point x="174" y="169" type="curve" smooth="yes"/>
      <point x="174" y="498" type="line"/>
      <point x="60" y="498" type="line"/>
      <point x="60" y="166" type="line" smooth="yes"/>
      <point x="60" y="60"/>
      <point x="101" y="-5"/>
      <point x="206" y="-5" type="curve" smooth="yes"/>
      <point x="393" y="-5"/>
      <point x="479" y="100"/>
      <point x="479" y="396" type="curve" smooth="yes"/>
      <point x="479" y="447"/>
      <point x="469" y="499"/>
      <point x="469" y="498" type="curve"/>
    </contour>
  </outline>
</glyph>
<glyph name="z" format="1">
  <advance width="418"/>
  <unicode hex="007A"/>
  <outline>
    <contour>
      <point x="393" y="0" type="line"/>
      <point x="393" y="83" type="line"/>
      <point x="256" y="83" type="line" smooth="yes"/>
      <point x="225" y="83"/>
      <point x="196" y="82"/>
      <point x="166" y="80" type="curve"/>
      <point x="384" y="430" type="line"/>
      <point x="384" y="498" type="line"/>
      <point x="38" y="498" type="line"/>
      <point x="52" y="415" type="line"/>
      <point x="150" y="415" type="line" smooth="yes"/>
      <point x="183" y="415"/>
      <point x="217" y="416"/>
      <point x="251" y="418" type="curve"/>
      <point x="30" y="68" type="line"/>
      <point x="30" y="0" type="line"/>
    </contour>
  </outline>
</glyph>
<glyph name="braceleft" format="1">
  <advance width="364"/>
  <unicode hex="007B"/>
  <outline>
    <contour>
      <point x="116" y="609" type="curve" smooth="yes"/>
      <point x="116" y="537"/>
      <point x="130" y="465"/>
      <point x="130" y="406" type="curve" smooth="yes"/>
      <point x="130" y="354"/>
      <point x="107" y="317"/>
      <point x="60" y="307" type="curve"/>
      <point x="60" y="225" type="line"/>
      <point x="107" y="215"/>
      <point x="130" y="178"/>
      <point x="130" y="126" type="curve" smooth="yes"/>
      <point x="130" y="67"/>
      <point x="116" y="-5"/>
      <point x="116" y="-77" type="curve" smooth="yes"/>
      <point x="116" y="-146"/>
      <point x="166" y="-192"/>
      <point x="258" y="-192" type="curve" smooth="yes"/>
      <point x="283" y="-192"/>
      <point x="312" y="-188"/>
      <point x="343" y="-180" type="curve"/>
      <point x="321" y="-96" type="line"/>
      <point x="302" y="-102"/>
      <point x="289" y="-105"/>
      <point x="277" y="-105" type="curve" smooth="yes"/>
      <point x="240" y="-105"/>
      <point x="230" y="-78"/>
      <point x="230" y="-61" type="curve" smooth="yes"/>
      <point x="230" y="-1"/>
      <point x="243" y="60"/>
      <point x="243" y="112" type="curve" smooth="yes"/>
      <point x="243" y="169"/>
      <point x="232" y="222"/>
      <point x="160" y="265" type="curve"/>
      <point x="232" y="309"/>
      <point x="243" y="362"/>
      <point x="243" y="420" type="curve" smooth="yes"/>
      <point x="243" y="472"/>
      <point x="230" y="533"/>
      <point x="230" y="593" type="curve" smooth="yes"/>
      <point x="230" y="609"/>
      <point x="240" y="637"/>
      <point x="277" y="637" type="curve" smooth="yes"/>
      <point x="289" y="637"/>
      <point x="302" y="634"/>
      <point x="321" y="628" type="curve"/>
      <point x="343" y="712" type="line"/>
      <point x="312" y="720"/>
      <point x="283" y="724"/>
      <point x="258" y="724" type="curve" smooth="yes"/>
      <point x="166" y="724"/>
      <point x="116" y="678"/>
    </contour>
  </outline>
</glyph>
<glyph name="section" format="1">
  <advance width="558"/>
  <unicode hex="00A7"/>
  <outline>
    <contour>
      <point x="377" y="169" type="curve" smooth="yes"/>
      <point x="377" y="123"/>
      <point x="346" y="102"/>
      <point x="321" y="93" type="curve"/>
      <point x="250" y="152"/>
      <point x="166" y="198"/>
      <point x="166" y="258" type="curve" smooth="yes"/>
      <point x="166" y="304"/>
      <point x="197" y="324"/>
      <point x="221" y="333" type="curve"/>
      <point x="293" y="275"/>
      <point x="377" y="228"/>
    </contour>
    <contour>
      <point x="254" y="-216" type="curve" smooth="yes"/>
      <point x="357" y="-216"/>
      <point x="423" y="-150"/>
      <point x="423" y="-68" type="curve" smooth="yes"/>
      <point x="423" y="-29"/>
      <point x="407" y="4"/>
      <point x="384" y="33" type="curve"/>
      <point x="426" y="51"/>
      <point x="493" y="94"/>
      <point x="493" y="181" type="curve" smooth="yes"/>
      <point x="493" y="255"/>
      <point x="446" y="304"/>
      <point x="392" y="346" type="curve" smooth="yes"/>
      <point x="320" y="402"/>
      <point x="235" y="443"/>
      <point x="235" y="506" type="curve" smooth="yes"/>
      <point x="235" y="542"/>
      <point x="256" y="559"/>
      <point x="292" y="559" type="curve" smooth="yes"/>
      <point x="335" y="559"/>
      <point x="369" y="543"/>
      <point x="380" y="537" type="curve"/>
      <point x="415" y="615" type="line"/>
      <point x="402" y="620"/>
      <point x="355" y="643"/>
      <point x="289" y="643" type="curve" smooth="yes"/>
      <point x="186" y="643"/>
      <point x="120" y="577"/>
      <point x="120" y="495" type="curve" smooth="yes"/>
      <point x="120" y="456"/>
      <point x="135" y="423"/>
      <point x="159" y="393" type="curve"/>
      <point x="116" y="375"/>
      <point x="50" y="333"/>
      <point x="50" y="245" type="curve" smooth="yes"/>
      <point x="50" y="188"/>
      <point x="80" y="144"/>
      <point x="118" y="108" type="curve" smooth="yes"/>
      <point x="194" y="37"/>
      <point x="308" y="-6"/>
      <point x="308" y="-79" type="curve" smooth="yes"/>
      <point x="308" y="-115"/>
      <point x="288" y="-132"/>
      <point x="251" y="-132" type="curve" smooth="yes"/>
      <point x="210" y="-132"/>
      <point x="169" y="-113"/>
      <point x="163" y="-110" type="curve"/>
      <point x="128" y="-188" type="line"/>
      <point x="132" y="-191"/>
      <point x="189" y="-216"/>
    </contour>
  </outline>
</glyph>
<glyph name="copyright" format="1">
  <advance width="782"/>
  <unicode hex="00A9"/>
  <outline>
    <contour>
      <point x="45" y="340" type="curve" smooth="yes"/>
      <point x="45" y="137"/>
      <point x="184" y="-6"/>
      <point x="387" y="-6" type="curve" smooth="yes"/>
      <point x="590" y="-6"/>
      <point x="737" y="137"/>
      <point x="737" y="340" type="curve" smooth="yes"/>
      <point x="737" y="543"/>
      <point x="597" y="686"/>
      <point x="394" y="686" type="curve" smooth="yes"/>
      <point x="191" y="686"/>
      <point x="45" y="543"/>
    </contour>
    <contour>
      <point x="130" y="346" type="curve" smooth="yes"/>
      <point x="130" y="502"/>
      <point x="238" y="613"/>
      <point x="391" y="613" type="curve" smooth="yes"/>
      <point x="545" y="613"/>
      <point x="651" y="489"/>
      <point x="651" y="333" type="curve" smooth="yes"/>
      <point x="651" y="178"/>
      <point x="544" y="67"/>
      <point x="390" y="67" type="curve" smooth="yes"/>
      <point x="238" y="67"/>
      <point x="130" y="191"/>
    </contour>
    <contour>
      <point x="513" y="506" type="line"/>
      <point x="496" y="524"/>
      <point x="467" y="545"/>
      <point x="418" y="545" type="curve" smooth="yes"/>
      <point x="301" y="545"/>
      <point x="247" y="460"/>
      <point x="247" y="338" type="curve" smooth="yes"/>
      <point x="247" y="211"/>
      <point x="300" y="143"/>
      <point x="403" y="143" type="curve" smooth="yes"/>
      <point x="459" y="143"/>
      <point x="502" y="161"/>
      <point x="505" y="163" type="curve"/>
      <point x="483" y="229" type="line"/>
      <point x="478" y="227"/>
      <point x="451" y="216"/>
      <point x="415" y="216" type="curve" smooth="yes"/>
      <point x="363" y="216"/>
      <point x="341" y="272"/>
      <point x="341" y="344" type="curve" smooth="yes"/>
      <point x="341" y="415"/>
      <point x="357" y="472"/>
      <point x="410" y="472" type="curve" smooth="yes"/>
      <point x="439" y="472"/>
      <point x="460" y="456"/>
      <point x="464" y="453" type="curve"/>
    </contour>
  </outline>
</glyph>
<glyph name="ordfeminine" format="1">
  <advance width="400"/>
  <unicode hex="00AA"/>
  <outline>
    <contour>
      <point x="337" y="667" type="line"/>
      <point x="338" y="667"/>
      <point x="254" y="686"/>
      <point x="201" y="686" type="curve" smooth="yes"/>
      <point x="103" y="686"/>
      <point x="35" y="611"/>
      <point x="35" y="507" type="curve" smooth="yes"/>
      <point x="35" y="404"/>
      <point x="77" y="335"/>
      <point x="167" y="335" type="curve" smooth="yes"/>
      <point x="216" y="335"/>
      <point x="248" y="356"/>
      <point x="265" y="396" type="curve"/>
      <point x="277" y="357"/>
      <point x="304" y="334"/>
      <point x="304" y="334" type="curve"/>
      <point x="370" y="360" type="line"/>
      <point x="370" y="360"/>
      <point x="337" y="401"/>
      <point x="337" y="505" type="curve" smooth="yes"/>
    </contour>
    <contour>
      <point x="178" y="399" type="curve" smooth="yes"/>
      <point x="136" y="399"/>
      <point x="132" y="456"/>
      <point x="132" y="513" type="curve" smooth="yes"/>
      <point x="132" y="577"/>
      <point x="149" y="624"/>
      <point x="210" y="624" type="curve" smooth="yes"/>
      <point x="220" y="624"/>
      <point x="236" y="620"/>
      <point x="248" y="618" type="curve"/>
      <point x="248" y="539" type="line" smooth="yes"/>
      <point x="248" y="468"/>
      <point x="217" y="399"/>
    </contour>
  </outline>
</glyph>
<glyph name="degree" format="1">
  <advance width="310"/>
  <unicode hex="00B0"/>
  <outline>
    <contour>
      <point x="40" y="604" type="curve" smooth="yes"/>
      <point x="40" y="537"/>
      <point x="87" y="488"/>
      <point x="154" y="488" type="curve" smooth="yes"/>
      <point x="221" y="488"/>
      <point x="270" y="538"/>
      <point x="270" y="604" type="curve" smooth="yes"/>
      <point x="270" y="671"/>
      <point x="223" y="721"/>
      <point x="156" y="721" type="curve" smooth="yes"/>
      <point x="89" y="721"/>
      <point x="40" y="671"/>
    </contour>
    <contour>
      <point x="104" y="605" type="curve" smooth="yes"/>
      <point x="104" y="642"/>
      <point x="123" y="664"/>
      <point x="155" y="664" type="curve" smooth="yes"/>
      <point x="188" y="664"/>
      <point x="207" y="639"/>
      <point x="207" y="604" type="curve" smooth="yes"/>
      <point x="207" y="567"/>
      <point x="188" y="545"/>
      <point x="155" y="545" type="curve" smooth="yes"/>
      <point x="123" y="545"/>
      <point x="104" y="570"/>
    </contour>
  </outline>
</glyph>
<glyph name="uni00B3" format="1">
  <advance width="328"/>
  <unicode hex="00B3"/>
  <outline>
    <contour>
      <point x="163" y="686" type="curve" smooth="yes"/>
      <point x="118" y="686"/>
      <point x="85" y="674"/>
      <point x="43" y="656" type="curve"/>
      <point x="73" y="593" type="line"/>
      <point x="114" y="611"/>
      <point x="136" y="618"/>
      <point x="154" y="618" type="curve" smooth="yes"/>
      <point x="169" y="618"/>
      <point x="179" y="605"/>
      <point x="179" y="591" type="curve" smooth="yes"/>
      <point x="179" y="549"/>
      <point x="121" y="545"/>
      <point x="84" y="534" type="curve"/>
      <point x="105" y="482" type="line"/>
      <point x="105" y="482"/>
      <point x="126" y="488"/>
      <point x="159" y="488" type="curve" smooth="yes"/>
      <point x="183" y="488"/>
      <point x="195" y="469"/>
      <point x="195" y="445" type="curve" smooth="yes"/>
      <point x="195" y="412"/>
      <point x="171" y="397"/>
      <point x="147" y="397" type="curve" smooth="yes"/>
      <point x="106" y="397"/>
      <point x="61" y="424"/>
      <point x="61" y="424" type="curve"/>
      <point x="35" y="363" type="line"/>
      <point x="72" y="343"/>
      <point x="116" y="329"/>
      <point x="150" y="329" type="curve" smooth="yes"/>
      <point x="249" y="329"/>
      <point x="282" y="388"/>
      <point x="282" y="446" type="curve" smooth="yes"/>
      <point x="282" y="483"/>
      <point x="261" y="514"/>
      <point x="223" y="530" type="curve"/>
      <point x="243" y="543"/>
      <point x="267" y="565"/>
      <point x="267" y="603" type="curve" smooth="yes"/>
      <point x="267" y="652"/>
      <point x="231" y="686"/>
    </contour>
  </outline>
</glyph>
<glyph name="periodcentered" format="1">
  <advance width="249"/>
  <unicode hex="00B7"/>
  <outline>
    <contour>
      <point x="126" y="393" type="curve" smooth="yes"/>
      <point x="76" y="393"/>
      <point x="50" y="359"/>
      <point x="50" y="316" type="curve" smooth="yes"/>
      <point x="50" y="276"/>
      <point x="76" y="242"/>
      <point x="123" y="242" type="curve" smooth="yes"/>
      <point x="172" y="242"/>
      <point x="198" y="276"/>
      <point x="198" y="318" type="curve" smooth="yes"/>
      <point x="198" y="362"/>
      <point x="172" y="393"/>
    </contour>
  </outline>
</glyph>
<glyph name="uni00B9" format="1">
  <advance width="266"/>
  <unicode hex="00B9"/>
  <outline>
    <contour>
      <point x="136" y="677" type="line"/>
      <point x="86" y="630"/>
      <point x="9" y="603"/>
      <point x="10" y="604" type="curve"/>
      <point x="45" y="541" type="line"/>
      <point x="69" y="552"/>
      <point x="92" y="568"/>
      <point x="113" y="588" type="curve"/>
      <point x="113" y="336" type="line"/>
      <point x="195" y="336" type="line"/>
      <point x="195" y="677" type="line"/>
    </contour>
  </outline>
</glyph>
<glyph name="ordmasculine" format="1">
  <advance width="409"/>
  <unicode hex="00BA"/>
  <outline>
    <contour>
      <point x="208" y="686" type="curve" smooth="yes"/>
      <point x="98" y="686"/>
      <point x="45" y="608"/>
      <point x="45" y="504" type="curve" smooth="yes"/>
      <point x="45" y="398"/>
      <point x="92" y="332"/>
      <point x="202" y="332" type="curve" smooth="yes"/>
      <point x="311" y="332"/>
      <point x="364" y="410"/>
      <point x="364" y="512" type="curve" smooth="yes"/>
      <point x="364" y="620"/>
      <point x="317" y="686"/>
    </contour>
    <contour>
      <point x="201" y="619" type="curve" smooth="yes"/>
      <point x="255" y="619"/>
      <point x="267" y="569"/>
      <point x="267" y="507" type="curve" smooth="yes"/>
      <point x="267" y="445"/>
      <point x="256" y="399"/>
      <point x="209" y="399" type="curve" smooth="yes"/>
      <point x="154" y="399"/>
      <point x="142" y="449"/>
      <point x="142" y="511" type="curve" smooth="yes"/>
      <point x="142" y="573"/>
      <point x="153" y="619"/>
    </contour>
  </outline>
</glyph>
<glyph name="guillemotright" format="1">
  <advance width="567"/>
  <unicode hex="00BB"/>
  <outline>
    <contour>
      <point x="255" y="408" type="line"/>
      <point x="385" y="245" type="line"/>
      <point x="255" y="82" type="line"/>
      <point x="302" y="28" type="line"/>
      <point x="302" y="28"/>
      <point x="440" y="147"/>
      <point x="516" y="245" type="curve"/>
      <point x="440" y="343"/>
      <point x="302" y="462"/>
      <point x="302" y="462" type="curve"/>
    </contour>
    <contour>
      <point x="35" y="408" type="line"/>
      <point x="165" y="245" type="line"/>
      <point x="35" y="82" type="line"/>
      <point x="83" y="28" type="line"/>
      <point x="83" y="28"/>
      <point x="220" y="147"/>
      <point x="297" y="245" type="curve"/>
      <point x="220" y="343"/>
      <point x="83" y="462"/>
      <point x="83" y="462" type="curve"/>
    </contour>
  </outline>
</glyph>
<glyph name="AE" format="1">
  <advance width="876"/>
  <unicode hex="00C6"/>
  <outline>
    <contour>
      <point x="435" y="0" type="line"/>
      <point x="850" y="0" type="line"/>
      <point x="850" y="90" type="line"/>
      <point x="552" y="90" type="line"/>
      <point x="552" y="307" type="line"/>
      <point x="770" y="307" type="line"/>
      <point x="785" y="398" type="line"/>
      <point x="552" y="398" type="line"/>
      <point x="552" y="587" type="line"/>
      <point x="835" y="587" type="line"/>
      <point x="835" y="677" type="line"/>
      <point x="405" y="677" type="line"/>
      <point x="-5" y="0" type="line"/>
      <point x="133" y="0" type="line"/>
      <point x="234" y="177" type="line"/>
      <point x="435" y="177" type="line"/>
    </contour>
    <contour>
      <point x="435" y="555" type="curve"/>
      <point x="435" y="265" type="line"/>
      <point x="284" y="265" type="line"/>
      <point x="337" y="367"/>
      <point x="419" y="521"/>
    </contour>
  </outline>
</glyph>
<glyph name="Edieresis" format="1">
  <advance width="513"/>
  <unicode hex="00CB"/>
  <outline>
    <contour>
      <point x="70" y="0" type="line"/>
      <point x="487" y="0" type="line"/>
      <point x="487" y="90" type="line"/>
      <point x="189" y="90" type="line"/>
      <point x="189" y="307" type="line"/>
      <point x="407" y="307" type="line"/>
      <point x="422" y="398" type="line"/>
      <point x="189" y="398" type="line"/>
      <point x="189" y="587" type="line"/>
      <point x="472" y="587" type="line"/>
      <point x="472" y="677" type="line"/>
      <point x="70" y="677" type="line"/>
    </contour>
    <contour>
      <point x="218" y="811" type="curve" smooth="yes"/>
      <point x="218" y="847"/>
      <point x="196" y="874"/>
      <point x="157" y="874" type="curve" smooth="yes"/>
      <point x="116" y="874"/>
      <point x="94" y="846"/>
      <point x="94" y="809" type="curve" smooth="yes"/>
      <point x="94" y="775"/>
      <point x="116" y="747"/>
      <point x="154" y="747" type="curve" smooth="yes"/>
      <point x="196" y="747"/>
      <point x="218" y="775"/>
    </contour>
    <contour>
      <point x="418" y="811" type="curve" smooth="yes"/>
      <point x="418" y="847"/>
      <point x="396" y="874"/>
      <point x="357" y="874" type="curve" smooth="yes"/>
      <point x="315" y="874"/>
      <point x="293" y="846"/>
      <point x="293" y="809" type="curve" smooth="yes"/>
      <point x="293" y="775"/>
      <point x="315" y="747"/>
      <point x="354" y="747" type="curve" smooth="yes"/>
      <point x="396" y="747"/>
      <point x="418" y="775"/>
    </contour>
  </outline>
</glyph>
<glyph name="Iacute" format="1">
  <advance width="259"/>
  <unicode hex="00CD"/>
  <outline>
    <contour>
      <point x="70" y="0" type="line"/>
      <point x="189" y="0" type="line"/>
      <point x="189" y="677" type="line"/>
      <point x="70" y="677" type="line"/>
    </contour>
    <contour>
      <point x="130" y="718" type="line"/>
      <point x="129" y="718"/>
      <point x="288" y="761"/>
      <point x="381" y="846" type="curve"/>
      <point x="329" y="928" type="line"/>
      <point x="102" y="776" type="line"/>
    </contour>
  </outline>
</glyph>
<glyph name="Ograve" format="1">
  <advance width="668"/>
  <unicode hex="00D2"/>
  <outline>
    <contour>
      <point x="341" y="686" type="curve" smooth="yes"/>
      <point x="138" y="686"/>
      <point x="45" y="539"/>
      <point x="45" y="330" type="curve" smooth="yes"/>
      <point x="45" y="118"/>
      <point x="128" y="-6"/>
      <point x="328" y="-6" type="curve" smooth="yes"/>
      <point x="530" y="-6"/>
      <point x="623" y="136"/>
      <point x="623" y="344" type="curve" smooth="yes"/>
      <point x="623" y="555"/>
      <point x="540" y="686"/>
    </contour>
    <contour>
      <point x="327" y="594" type="curve" smooth="yes"/>
      <point x="465" y="594"/>
      <point x="495" y="469"/>
      <point x="495" y="334" type="curve" smooth="yes"/>
      <point x="495" y="192"/>
      <point x="458" y="86"/>
      <point x="342" y="86" type="curve" smooth="yes"/>
      <point x="204" y="86"/>
      <point x="174" y="206"/>
      <point x="174" y="341" type="curve" smooth="yes"/>
      <point x="174" y="484"/>
      <point x="211" y="594"/>
    </contour>
    <contour>
      <point x="356" y="776" type="line"/>
      <point x="129" y="928" type="line"/>
      <point x="77" y="846" type="line"/>
      <point x="170" y="761"/>
      <point x="329" y="718"/>
      <point x="328" y="718" type="curve"/>
    </contour>
  </outline>
</glyph>
<glyph name="Ugrave" format="1">
  <advance width="635"/>
  <unicode hex="00D9"/>
  <outline>
    <contour>
      <point x="60" y="677" type="line"/>
      <point x="60" y="249" type="line" smooth="yes"/>
      <point x="60" y="111"/>
      <point x="122" y="-6"/>
      <point x="310" y="-6" type="curve" smooth="yes"/>
      <point x="508" y="-6"/>
      <point x="575" y="111"/>
      <point x="575" y="249" type="curve" smooth="yes"/>
      <point x="575" y="677" type="line"/>
      <point x="456" y="677" type="line"/>
      <point x="456" y="258" type="line" smooth="yes"/>
      <point x="456" y="150"/>
      <point x="413" y="86"/>
      <point x="323" y="86" type="curve" smooth="yes"/>
      <point x="234" y="86"/>
      <point x="178" y="134"/>
      <point x="178" y="258" type="curve" smooth="yes"/>
      <point x="178" y="677" type="line"/>
    </contour>
    <contour>
      <point x="342" y="776" type="line"/>
      <point x="115" y="928" type="line"/>
      <point x="63" y="846" type="line"/>
      <point x="156" y="761"/>
      <point x="315" y="718"/>
      <point x="314" y="718" type="curve"/>
    </contour>
  </outline>
</glyph>
<glyph name="germandbls" format="1">
  <advance width="578"/>
  <unicode hex="00DF"/>
  <outline>
    <contour>
      <point x="209" y="486" type="line" smooth="yes"/>
      <point x="209" y="559"/>
      <point x="232" y="638"/>
      <point x="313" y="638" type="curve" smooth="yes"/>
      <point x="354" y="638"/>
      <point x="392" y="620"/>
      <point x="392" y="575" type="curve" smooth="yes"/>
      <point x="392" y="506"/>
      <point x="284" y="482"/>
      <point x="284" y="383" type="curve" smooth="yes"/>
      <point x="284" y="226"/>
      <point x="432" y="238"/>
      <point x="432" y="143" type="curve" smooth="yes"/>
      <point x="432" y="99"/>
      <point x="400" y="79"/>
      <point x="348" y="79" type="curve" smooth="yes"/>
      <point x="317" y="79"/>
      <point x="280" y="100"/>
      <point x="270" y="105" type="curve"/>
      <point x="236" y="30" type="line"/>
      <point x="244" y="25"/>
      <point x="299" y="-7"/>
      <point x="363" y="-7" type="curve" smooth="yes"/>
      <point x="473" y="-7"/>
      <point x="547" y="58"/>
      <point x="547" y="152" type="curve" smooth="yes"/>
      <point x="547" y="315"/>
      <point x="390" y="309"/>
      <point x="390" y="402" type="curve" smooth="yes"/>
      <point x="390" y="461"/>
      <point x="505" y="470"/>
      <point x="505" y="585" type="curve" smooth="yes"/>
      <point x="505" y="657"/>
      <point x="451" y="725"/>
      <point x="329" y="725" type="curve" smooth="yes"/>
      <point x="173" y="725"/>
      <point x="95" y="624"/>
      <point x="95" y="478" type="curve" smooth="yes"/>
      <point x="95" y="14" type="line" smooth="yes"/>
      <point x="95" y="-27"/>
      <point x="95" y="-103"/>
      <point x="-5" y="-154" type="curve"/>
      <point x="38" y="-223" type="line"/>
      <point x="117" y="-182"/>
      <point x="209" y="-134"/>
      <point x="209" y="25" type="curve" smooth="yes"/>
    </contour>
  </outline>
</glyph>
<glyph name="adieresis" format="1">
  <advance width="536"/>
  <unicode hex="00E4"/>
  <outline>
    <contour>
      <point x="467" y="477" type="line"/>
      <point x="458" y="479"/>
      <point x="354" y="506"/>
      <point x="274" y="506" type="curve" smooth="yes"/>
      <point x="132" y="506"/>
      <point x="35" y="394"/>
      <point x="35" y="242" type="curve" smooth="yes"/>
      <point x="35" y="92"/>
      <point x="94" y="-6"/>
      <point x="219" y="-6" type="curve" smooth="yes"/>
      <point x="304" y="-6"/>
      <point x="353" y="35"/>
      <point x="375" y="115" type="curve"/>
      <point x="380" y="34"/>
      <point x="426" y="-8"/>
      <point x="426" y="-8" type="curve"/>
      <point x="515" y="28" type="line"/>
      <point x="515" y="28"/>
      <point x="467" y="83"/>
      <point x="467" y="241" type="curve" smooth="yes"/>
    </contour>
    <contour>
      <point x="238" y="74" type="curve" smooth="yes"/>
      <point x="165" y="74"/>
      <point x="158" y="159"/>
      <point x="158" y="252" type="curve" smooth="yes"/>
      <point x="158" y="353"/>
      <point x="187" y="426"/>
      <point x="287" y="426" type="curve" smooth="yes"/>
      <point x="308" y="426"/>
      <point x="340" y="419"/>
      <point x="353" y="415" type="curve"/>
      <point x="353" y="271" type="line" smooth="yes"/>
      <point x="353" y="173"/>
      <point x="304" y="74"/>
    </contour>
    <contour>
      <point x="229" y="651" type="curve" smooth="yes"/>
      <point x="229" y="687"/>
      <point x="207" y="714"/>
      <point x="168" y="714" type="curve" smooth="yes"/>
      <point x="127" y="714"/>
      <point x="105" y="686"/>
      <point x="105" y="649" type="curve" smooth="yes"/>
      <point x="105" y="615"/>
      <point x="127" y="587"/>
      <point x="165" y="587" type="curve" smooth="yes"/>
      <point x="207" y="587"/>
      <point x="229" y="615"/>
    </contour>
    <contour>
      <point x="429" y="651" type="curve" smooth="yes"/>
      <point x="429" y="687"/>
      <point x="407" y="714"/>
      <point x="368" y="714" type="curve" smooth="yes"/>
      <point x="326" y="714"/>
      <point x="304" y="686"/>
      <point x="304" y="649" type="curve" smooth="yes"/>
      <point x="304" y="615"/>
      <point x="326" y="587"/>
      <point x="365" y="587" type="curve" smooth="yes"/>
      <point x="407" y="587"/>
      <point x="429" y="615"/>
    </contour>
  </outline>
</glyph>
<glyph name="ccedilla" format="1">
  <advance width="410"/>
  <unicode hex="00E7"/>
  <outline>
    <contour>
      <point x="399" y="442" type="line"/>
      <point x="369" y="484"/>
      <point x="326" y="510"/>
      <point x="264" y="510" type="curve" smooth="yes"/>
      <point x="135" y="510"/>
      <point x="35" y="413"/>
      <point x="35" y="237" type="curve" smooth="yes"/>
      <point x="35" y="102"/>
      <point x="89" y="8"/>
      <point x="219" y="-5" type="curve"/>
      <point x="199" y="-85" type="line"/>
      <point x="238" y="-85"/>
      <point x="291" y="-98"/>
      <point x="291" y="-129" type="curve" smooth="yes"/>
      <point x="291" y="-149"/>
      <point x="277" y="-160"/>
      <point x="241" y="-160" type="curve" smooth="yes"/>
      <point x="218" y="-160"/>
      <point x="192" y="-152"/>
      <point x="177" y="-147" type="curve"/>
      <point x="161" y="-201" type="line"/>
      <point x="184" y="-210"/>
      <point x="215" y="-218"/>
      <point x="247" y="-218" type="curve" smooth="yes"/>
      <point x="302" y="-218"/>
      <point x="365" y="-199"/>
      <point x="365" y="-126" type="curve" smooth="yes"/>
      <point x="365" y="-77"/>
      <point x="327" y="-51"/>
      <point x="275" y="-47" type="curve"/>
      <point x="284" y="-6" type="line"/>
      <point x="349" y="0"/>
      <point x="388" y="20"/>
      <point x="394" y="23" type="curve"/>
      <point x="366" y="95" type="line"/>
      <point x="353" y="91"/>
      <point x="305" y="75"/>
      <point x="268" y="75" type="curve" smooth="yes"/>
      <point x="221" y="75"/>
      <point x="158" y="96"/>
      <point x="158" y="252" type="curve" smooth="yes"/>
      <point x="158" y="408"/>
      <point x="222" y="422"/>
      <point x="263" y="422" type="curve" smooth="yes"/>
      <point x="297" y="422"/>
      <point x="315" y="403"/>
      <point x="335" y="381" type="curve"/>
    </contour>
  </outline>
</glyph>
<glyph name="idieresis" format="1">
  <advance width="245"/>
  <unicode hex="00EF"/>
  <outline>
    <contour>
      <point x="159" y="-4" type="curve" smooth="yes"/>
      <point x="206" y="-4"/>
      <point x="230" y="10"/>
      <point x="230" y="10" type="curve"/>
      <point x="218" y="82" type="line"/>
      <point x="218" y="82"/>
      <point x="202" y="80"/>
      <point x="192" y="80" type="curve" smooth="yes"/>
      <point x="173" y="80"/>
      <point x="164" y="89"/>
      <point x="164" y="119" type="curve" smooth="yes"/>
      <point x="164" y="498" type="line"/>
      <point x="50" y="498" type="line"/>
      <point x="50" y="109" type="line" smooth="yes"/>
      <point x="50" y="43"/>
      <point x="89" y="-4"/>
    </contour>
    <contour>
      <point x="83" y="646" type="curve" smooth="yes"/>
      <point x="83" y="680"/>
      <point x="62" y="705"/>
      <point x="25" y="705" type="curve" smooth="yes"/>
      <point x="-14" y="705"/>
      <point x="-35" y="679"/>
      <point x="-35" y="643" type="curve" smooth="yes"/>
      <point x="-35" y="611"/>
      <point x="-14" y="584"/>
      <point x="22" y="584" type="curve" smooth="yes"/>
      <point x="62" y="584"/>
      <point x="83" y="611"/>
    </contour>
    <contour>
      <point x="249" y="646" type="curve" smooth="yes"/>
      <point x="249" y="680"/>
      <point x="228" y="705"/>
      <point x="191" y="705" type="curve" smooth="yes"/>
      <point x="151" y="705"/>
      <point x="130" y="679"/>
      <point x="130" y="643" type="curve" smooth="yes"/>
      <point x="130" y="611"/>
      <point x="151" y="584"/>
      <point x="188" y="584" type="curve" smooth="yes"/>
      <point x="228" y="584"/>
      <point x="249" y="611"/>
    </contour>
  </outline>
</glyph>
<glyph name="eth" format="1">
  <advance width="517"/>
  <unicode hex="00F0"/>
  <outline>
    <contour>
      <point x="482" y="250" type="curve" smooth="yes"/>
      <point x="482" y="374"/>
      <point x="453" y="488"/>
      <point x="398" y="578" type="curve"/>
      <point x="492" y="598" type="line"/>
      <point x="472" y="675" type="line"/>
      <point x="350" y="643" type="line"/>
      <point x="320" y="676"/>
      <point x="286" y="705"/>
      <point x="247" y="729" type="curve"/>
      <point x="189" y="659" type="line"/>
      <point x="243" y="617" type="line"/>
      <point x="168" y="601" type="line"/>
      <point x="188" y="523" type="line"/>
      <point x="300" y="554" type="line"/>
      <point x="317" y="525"/>
      <point x="334" y="492"/>
      <point x="348" y="455" type="curve"/>
      <point x="325" y="471"/>
      <point x="293" y="484"/>
      <point x="253" y="484" type="curve" smooth="yes"/>
      <point x="110" y="484"/>
      <point x="35" y="377"/>
      <point x="35" y="239" type="curve" smooth="yes"/>
      <point x="35" y="94"/>
      <point x="101" y="-10"/>
      <point x="254" y="-10" type="curve" smooth="yes"/>
      <point x="407" y="-10"/>
      <point x="482" y="100"/>
    </contour>
    <contour>
      <point x="253" y="405" type="curve" smooth="yes"/>
      <point x="339" y="405"/>
      <point x="359" y="331"/>
      <point x="359" y="240" type="curve" smooth="yes"/>
      <point x="359" y="152"/>
      <point x="341" y="74"/>
      <point x="264" y="74" type="curve" smooth="yes"/>
      <point x="178" y="74"/>
      <point x="158" y="157"/>
      <point x="158" y="248" type="curve" smooth="yes"/>
      <point x="158" y="337"/>
      <point x="176" y="405"/>
    </contour>
  </outline>
</glyph>
<glyph name="otilde" format="1">
  <advance width="517"/>
  <unicode hex="00F5"/>
  <outline>
    <contour>
      <point x="263" y="510" type="curve" smooth="yes"/>
      <point x="110" y="510"/>
      <point x="35" y="395"/>
      <point x="35" y="244" type="curve" smooth="yes"/>
      <point x="35" y="86"/>
      <point x="101" y="-10"/>
      <point x="254" y="-10" type="curve" smooth="yes"/>
      <point x="407" y="-10"/>
      <point x="482" y="105"/>
      <point x="482" y="255" type="curve" smooth="yes"/>
      <point x="482" y="414"/>
      <point x="416" y="510"/>
    </contour>
    <contour>
      <point x="253" y="426" type="curve" smooth="yes"/>
      <point x="339" y="426"/>
      <point x="359" y="345"/>
      <point x="359" y="245" type="curve" smooth="yes"/>
      <point x="359" y="149"/>
      <point x="341" y="74"/>
      <point x="264" y="74" type="curve" smooth="yes"/>
      <point x="178" y="74"/>
      <point x="158" y="155"/>
      <point x="158" y="254" type="curve" smooth="yes"/>
      <point x="158" y="351"/>
      <point x="176" y="426"/>
    </contour>
    <contour>
      <point x="95" y="589" type="line"/>
      <point x="95" y="589"/>
      <point x="129" y="603"/>
      <point x="174" y="603" type="curve" smooth="yes"/>
      <point x="223" y="603"/>
      <point x="278" y="583"/>
      <point x="327" y="583" type="curve" smooth="yes"/>
      <point x="372" y="583"/>
      <point x="407" y="606"/>
      <point x="407" y="606" type="curve"/>
      <point x="407" y="680" type="line"/>
      <point x="407" y="680"/>
      <point x="372" y="666"/>
      <point x="327" y="666" type="curve" smooth="yes"/>
      <point x="278" y="666"/>
      <point x="223" y="686"/>
      <point x="174" y="686" type="curve" smooth="yes"/>
      <point x="129" y="686"/>
      <point x="95" y="663"/>
      <point x="95" y="663" type="curve"/>
    </contour>
  </outline>
</glyph>
<glyph name="uacute" format="1">
  <advance width="549"/>
  <unicode hex="00FA"/>
  <outline>
    <contour>
      <point x="361" y="254" type="line" smooth="yes"/>
      <point x="361" y="148"/>
      <point x="299" y="78"/>
      <point x="240" y="78" type="curve" smooth="yes"/>
      <point x="192" y="78"/>
      <point x="174" y="113"/>
      <point x="174" y="168" type="curve" smooth="yes"/>
      <point x="174" y="498" type="line"/>
      <point x="60" y="498" type="line"/>
      <point x="60" y="166" type="line" smooth="yes"/>
      <point x="60" y="60"/>
      <point x="101" y="-6"/>
      <point x="206" y="-6" type="curve" smooth="yes"/>
      <point x="277" y="-6"/>
      <point x="348" y="25"/>
      <point x="384" y="103" type="curve"/>
      <point x="393" y="30"/>
      <point x="434" y="-8"/>
      <point x="434" y="-8" type="curve"/>
      <point x="523" y="28" type="line"/>
      <point x="523" y="28"/>
      <point x="475" y="83"/>
      <point x="475" y="241" type="curve" smooth="yes"/>
      <point x="475" y="498" type="line"/>
      <point x="361" y="498" type="line"/>
    </contour>
    <contour>
      <point x="263" y="538" type="line"/>
      <point x="263" y="538"/>
      <point x="381" y="610"/>
      <point x="460" y="708" type="curve"/>
      <point x="384" y="779" type="line"/>
      <point x="214" y="590" type="line"/>
    </contour>
  </outline>
</glyph>
<glyph name="OE" format="1">
  <advance width="854"/>
  <unicode hex="0152"/>
  <outline>
    <contour>
      <point x="411" y="0" type="curve"/>
      <point x="829" y="0" type="line"/>
      <point x="829" y="90" type="line"/>
      <point x="530" y="90" type="line"/>
      <point x="530" y="307" type="line"/>
      <point x="749" y="307" type="line"/>
      <point x="764" y="398" type="line"/>
      <point x="530" y="398" type="line"/>
      <point x="530" y="587" type="line"/>
      <point x="814" y="587" type="line"/>
      <point x="814" y="677" type="line"/>
      <point x="423" y="677" type="line"/>
      <point x="404" y="682"/>
      <point x="377" y="686"/>
      <point x="341" y="686" type="curve" smooth="yes"/>
      <point x="138" y="686"/>
      <point x="45" y="539"/>
      <point x="45" y="330" type="curve" smooth="yes"/>
      <point x="45" y="118"/>
      <point x="128" y="-6"/>
      <point x="328" y="-6" type="curve" smooth="yes"/>
      <point x="352" y="-6"/>
      <point x="382" y="-3"/>
    </contour>
    <contour>
      <point x="342" y="86" type="curve" smooth="yes"/>
      <point x="204" y="86"/>
      <point x="174" y="206"/>
      <point x="174" y="341" type="curve" smooth="yes"/>
      <point x="174" y="484"/>
      <point x="211" y="594"/>
      <point x="327" y="594" type="curve" smooth="yes"/>
      <point x="366" y="594"/>
      <point x="394" y="587"/>
      <point x="412" y="581" type="curve"/>
      <point x="412" y="92" type="line"/>
      <point x="387" y="89"/>
      <point x="361" y="86"/>
    </contour>
  </outline>
</glyph>
<glyph name="Ydieresis" format="1">
  <advance width="543"/>
  <unicode hex="0178"/>
  <outline>
    <contour>
      <point x="210" y="0" type="line"/>
      <point x="329" y="0" type="line"/>
      <point x="329" y="254" type="line"/>
      <point x="542" y="677" type="line"/>
      <point x="416" y="677" type="line"/>
      <point x="271" y="370" type="line"/>
      <point x="129" y="677" type="line"/>
      <point x="0" y="677" type="line"/>
      <point x="210" y="259" type="line"/>
    </contour>
    <contour>
      <point x="233" y="811" type="curve" smooth="yes"/>
      <point x="233" y="847"/>
      <point x="211" y="874"/>
      <point x="172" y="874" type="curve" smooth="yes"/>
      <point x="131" y="874"/>
      <point x="109" y="846"/>
      <point x="109" y="809" type="curve" smooth="yes"/>
      <point x="109" y="775"/>
      <point x="131" y="747"/>
      <point x="169" y="747" type="curve" smooth="yes"/>
      <point x="211" y="747"/>
      <point x="233" y="775"/>
    </contour>
    <contour>
      <point x="433" y="811" type="curve" smooth="yes"/>
      <point x="433" y="847"/>
      <point x="411" y="874"/>
      <point x="372" y="874" type="curve" smooth="yes"/>
      <point x="330" y="874"/>
      <point x="308" y="846"/>
      <point x="308" y="809" type="curve" smooth="yes"/>
      <point x="308" y="775"/>
      <point x="330" y="747"/>
      <point x="369" y="747" type="curve" smooth="yes"/>
      <point x="411" y="747"/>
      <point x="433" y="775"/>
    </contour>
  </outline>
</glyph>
<glyph name="ring" format="1">
  <advance width="500"/>
  <unicode hex="02DA"/>
  <outline>
    <contour>
      <point x="151" y="726" type="curve" smooth="yes"/>
      <point x="151" y="669"/>
      <point x="192" y="625"/>
      <point x="249" y="625" type="curve" smooth="yes"/>
      <point x="307" y="625"/>
      <point x="350" y="669"/>
      <point x="350" y="726" type="curve" smooth="yes"/>
      <point x="350" y="784"/>
      <point x="309" y="826"/>
      <point x="252" y="826" type="curve" smooth="yes"/>
      <point x="194" y="826"/>
      <point x="151" y="783"/>
    </contour>
    <contour>
      <point x="207" y="727" type="curve" smooth="yes"/>
      <point x="207" y="758"/>
      <point x="223" y="776"/>
      <point x="250" y="776" type="curve" smooth="yes"/>
      <point x="278" y="776"/>
      <point x="294" y="756"/>
      <point x="294" y="726" type="curve" smooth="yes"/>
      <point x="294" y="694"/>
      <point x="278" y="674"/>
      <point x="250" y="674" type="curve" smooth="yes"/>
      <point x="223" y="674"/>
      <point x="207" y="697"/>
    </contour>
  </outline>
</glyph>
<glyph name="quoteleft" format="1">
  <advance width="230"/>
  <unicode hex="2018"/>
  <outline>
    <contour>
      <point x="152" y="452" type="curve"/>
      <point x="151" y="477"/>
      <point x="133" y="511"/>
      <point x="133" y="550" type="curve" smooth="yes"/>
      <point x="133" y="586"/>
      <point x="147" y="626"/>
      <point x="200" y="664" type="curve"/>
      <point x="157" y="722" type="line"/>
      <point x="86" y="686"/>
      <point x="20" y="616"/>
      <point x="20" y="508" type="curve" smooth="yes"/>
      <point x="20" y="465"/>
      <point x="41" y="434"/>
      <point x="87" y="434" type="curve" smooth="yes"/>
      <point x="134" y="434"/>
      <point x="151" y="451"/>
    </contour>
  </outline>
</glyph>
<glyph name="quotesinglbase" format="1">
  <advance width="230"/>
  <unicode hex="201A"/>
  <outline>
    <contour>
      <point x="77" y="123" type="curve"/>
      <point x="78" y="98"/>
      <point x="96" y="64"/>
      <point x="96" y="25" type="curve" smooth="yes"/>
      <point x="96" y="-11"/>
      <point x="82" y="-51"/>
      <point x="30" y="-89" type="curve"/>
      <point x="73" y="-147" type="line"/>
      <point x="144" y="-111"/>
      <point x="210" y="-41"/>
      <point x="210" y="67" type="curve" smooth="yes"/>
      <point x="210" y="110"/>
      <point x="189" y="141"/>
      <point x="143" y="141" type="curve" smooth="yes"/>
      <point x="96" y="141"/>
      <point x="78" y="124"/>
    </contour>
  </outline>
</glyph>
<glyph name="quotedblright" format="1">
  <advance width="430"/>
  <unicode hex="201D"/>
  <outline>
    <contour>
      <point x="77" y="709" type="curve"/>
      <point x="78" y="684"/>
      <point x="96" y="650"/>
      <point x="96" y="611" type="curve" smooth="yes"/>
      <point x="96" y="575"/>
      <point x="82" y="535"/>
      <point x="30" y="497" type="curve"/>
      <point x="73" y="439" type="line"/>
      <point x="144" y="475"/>
      <point x="210" y="545"/>
      <point x="210" y="653" type="curve" smooth="yes"/>
      <point x="210" y="696"/>
      <point x="189" y="727"/>
      <point x="143" y="727" type="curve" smooth="yes"/>
      <point x="96" y="727"/>
      <point x="78" y="710"/>
    </contour>
    <contour>
      <point x="277" y="709" type="curve"/>
      <point x="278" y="684"/>
      <point x="296" y="650"/>
      <point x="296" y="611" type="curve" smooth="yes"/>
      <point x="296" y="575"/>
      <point x="282" y="535"/>
      <point x="230" y="497" type="curve"/>
      <point x="272" y="439" type="line"/>
      <point x="343" y="475"/>
      <point x="410" y="545"/>
      <point x="410" y="653" type="curve" smooth="yes"/>
      <point x="410" y="696"/>
      <point x="389" y="727"/>
      <point x="342" y="727" type="curve" smooth="yes"/>
      <point x="296" y="727"/>
      <point x="278" y="710"/>
    </contour>
  </outline>
</glyph>
<glyph name="quotedblbase" format="1">
  <advance width="430"/>
  <unicode hex="201E"/>
  <outline>
    <contour>
      <point x="77" y="123" type="curve"/>
      <point x="78" y="98"/>
      <point x="96" y="64"/>
      <point x="96" y="25" type="curve" smooth="yes"/>
      <point x="96" y="-11"/>
      <point x="82" y="-51"/>
      <point x="30" y="-89" type="curve"/>
      <point x="73" y="-147" type="line"/>
      <point x="144" y="-111"/>
      <point x="210" y="-41"/>
      <point x="210" y="67" type="curve" smooth="yes"/>
      <point x="210" y="110"/>
      <point x="189" y="141"/>
      <point x="143" y="141" type="curve" smooth="yes"/>
      <point x="96" y="141"/>
      <point x="78" y="124"/>
    </contour>
    <contour>
      <point x="277" y="123" type="curve"/>
      <point x="278" y="98"/>
      <point x="296" y="64"/>
      <point x="296" y="25" type="curve" smooth="yes"/>
      <point x="296" y="-11"/>
      <point x="282" y="-51"/>
      <point x="230" y="-89" type="curve"/>
      <point x="272" y="-147" type="line"/>
      <point x="343" y="-111"/>
      <point x="410" y="-41"/>
      <point x="410" y="67" type="curve" smooth="yes"/>
      <point x="410" y="110"/>
      <point x="389" y="141"/>
      <point x="342" y="141" type="curve" smooth="yes"/>
      <point x="296" y="141"/>
      <point x="278" y="124"/>
    </contour>
  </outline>
</glyph>
<glyph name="uni2074" format="1">
  <advance width="329"/>
  <unicode hex="2074"/>
  <outline>
    <contour>
      <point x="260" y="594" type="line"/>
      <point x="177" y="574" type="line"/>
      <point x="177" y="482" type="line"/>
      <point x="109" y="482" type="line"/>
      <point x="193" y="677" type="line"/>
      <point x="110" y="677" type="line"/>
      <point x="20" y="459" type="line"/>
      <point x="20" y="420" type="line"/>
      <point x="177" y="420" type="line"/>
      <point x="177" y="336" type="line"/>
      <point x="260" y="336" type="line"/>
      <point x="260" y="420" type="line"/>
      <point x="299" y="420" type="line"/>
      <point x="309" y="482" type="line"/>
      <point x="260" y="482" type="line"/>
    </contour>
  </outline>
</glyph>
